<?xml version="1.0" encoding="UTF-8" standalone="no"?>
<!-- Created with Inkscape (http://www.inkscape.org/) -->

<svg
   xmlns:dc="http://purl.org/dc/elements/1.1/"
   xmlns:cc="http://creativecommons.org/ns#"
   xmlns:rdf="http://www.w3.org/1999/02/22-rdf-syntax-ns#"
   xmlns:svg="http://www.w3.org/2000/svg"
   xmlns="http://www.w3.org/2000/svg"
   xmlns:sodipodi="http://sodipodi.sourceforge.net/DTD/sodipodi-0.dtd"
   xmlns:inkscape="http://www.inkscape.org/namespaces/inkscape"
   width="410mm"
   height="297mm"
   viewBox="0 0 410 297"
   version="1.1"
   id="svg8"
   inkscape:version="0.92.3 (2405546, 2018-03-11)"
   sodipodi:docname="drawing.svg">
  <defs
     id="defs2">
    <clipPath
       clipPathUnits="userSpaceOnUse"
       id="clipPath4639">
      <rect
         style="opacity:1;fill:none;fill-opacity:1;stroke:#ff0707;stroke-width:0.26499999;stroke-miterlimit:4;stroke-dasharray:none;stroke-dashoffset:0;stroke-opacity:1;paint-order:normal"
         id="rect4641"
         width="202.32303"
         height="83.388092"
         x="100.49334"
         y="86.658875"
         ry="0.77803105"
         rx="0.77803105" />
    </clipPath>
  </defs>
  <sodipodi:namedview
     id="base"
     pagecolor="#ffffff"
     bordercolor="#666666"
     borderopacity="1.0"
     inkscape:pageopacity="0.0"
     inkscape:pageshadow="2"
     inkscape:zoom="0.98994949"
     inkscape:cx="488.70163"
     inkscape:cy="694.48782"
     inkscape:document-units="mm"
     inkscape:current-layer="layer1"
     showgrid="false"
     inkscape:window-width="1920"
     inkscape:window-height="1001"
     inkscape:window-x="-9"
     inkscape:window-y="-9"
     inkscape:window-maximized="1" />
  <metadata
     id="metadata5">
    <rdf:RDF>
      <cc:Work
         rdf:about="">
        <dc:format>image/svg+xml</dc:format>
        <dc:type
           rdf:resource="http://purl.org/dc/dcmitype/StillImage" />
        <dc:title></dc:title>
      </cc:Work>
    </rdf:RDF>
  </metadata>
  <g
     inkscape:label="Layer 1"
     inkscape:groupmode="layer"
     id="layer1">
    <path
       style="fill:#000000;stroke-width:1"
       d="m 192.55724,151.36171 c -0.4876,-0.24025 -1.20198,-0.91331 -1.5875,-1.49569 l -0.70094,-1.05888 -0.13229,-15.23318 -0.1323,-15.23318 -0.51133,1.52135 c -0.28124,0.83674 -0.59566,1.52135 -0.69872,1.52135 -0.10305,0 -0.70638,-0.23551 -1.34074,-0.52335 -1.41158,-0.64052 -2.02278,-0.65922 -3.40965,-0.10431 -2.31068,0.92456 -2.9031,3.71031 -2.9031,13.65145 v 6.2908 h -3.57187 -3.57188 V 127.73348 114.7689 h 3.30729 3.3073 v 1.61126 1.61126 l 1.03808,-1.31327 c 0.59195,-0.74888 1.5375,-1.55504 2.2002,-1.87584 1.37839,-0.66727 3.58671,-0.74492 5.18162,-0.1822 l 1.07811,0.38038 0.0796,-8.55837 0.0796,-8.558367 0.80038,-0.98843 c 0.4402,-0.54363 1.21225,-1.20932 1.71566,-1.4793 0.88205,-0.47304 2.6948,-0.49087 49.91625,-0.49087 33.97801,0 49.22933,0.0863 49.74579,0.28142 1.0136,0.38296 2.18896,1.52473 2.62951,2.55435 0.30065,0.7027 0.36428,5.172757 0.36428,25.593087 0,27.788 0.10999,26.21108 -1.9313,27.68977 l -1.05852,0.76679 -49.50352,-0.006 c -45.47271,-0.006 -49.57572,-0.0416 -50.39009,-0.44283 z"
       transform="translate(-51.850288,-25.925144)"
       id="path4683" />
    <path
       style="fill:#000000;stroke-width:1"
       d="m 246.77737,140.26027 c 0.95187,-0.44543 2.22973,-1.28462 2.8397,-1.86486 l 1.10902,-1.05499 v 1.67882 1.67883 h 3.30729 3.30729 V 127.73348 114.7689 h -3.55265 -3.55265 l -0.0854,8.6651 -0.0854,8.66511 -0.65861,1.15042 c -1.57559,2.75213 -5.50898,3.48668 -7.50641,1.40181 -1.04883,-1.09475 -1.22441,-2.7958 -1.22616,-11.87879 l -0.002,-8.00365 h -3.59656 -3.59657 l 0.11712,9.72344 c 0.13351,11.08454 0.2495,11.84971 2.11804,13.97249 1.79579,2.04012 3.78233,2.79254 7.07922,2.68134 1.86162,-0.0628 2.55451,-0.21687 3.9842,-0.8859 z"
       transform="translate(-51.850288,-25.925144)"
       id="path4681" />
    <path
       style="fill:#000000;stroke-width:1"
       d="m 282.80933,140.21997 c 4.40783,-2.16995 6.82146,-7.34618 6.43927,-13.80939 -0.33827,-5.72004 -2.39956,-9.31746 -6.47512,-11.30046 -1.3285,-0.64639 -1.7858,-0.72476 -4.26614,-0.73104 -2.5342,-0.006 -2.9059,0.0584 -4.23333,0.7389 -0.80037,0.41027 -1.81807,1.09488 -2.26156,1.52136 -0.44349,0.42647 -0.88997,0.7754 -0.99219,0.7754 -0.10221,0 -0.18584,-2.79796 -0.18584,-6.2177 v -6.21771 h -3.43958 -3.43958 v 17.85937 17.85938 h 3.30729 3.30729 v -1.6212 -1.6212 l 1.16037,1.06959 c 2.18128,2.01064 4.16773,2.73094 7.21489,2.61617 1.78881,-0.0674 2.44924,-0.22486 3.86423,-0.92147 z"
       transform="translate(-51.850288,-25.925144)"
       id="path4679" />
    <path
       style="fill:#000000;stroke-width:1"
       d="m 274.97652,135.54964 c -2.08581,-0.74369 -3.43188,-2.71341 -3.89645,-5.70171 -0.59329,-3.81635 0.21499,-7.38794 2.03325,-8.9844 2.50817,-2.2022 6.54144,-1.38476 7.99633,1.62067 1.66349,3.43633 1.14723,9.92511 -0.94943,11.93336 -1.47788,1.41557 -3.28297,1.80978 -5.1837,1.13208 z"
       transform="translate(-51.850288,-25.925144)"
       id="path4677" />
    <path
       style="fill:#000000;stroke-width:1"
       d="m 205.48234,132.89287 v -7.80521 h 7.01146 7.01146 v 7.80521 7.80521 h 3.70416 3.70417 V 122.8387 104.97933 h -3.70417 -3.70416 v 7.01146 7.01145 h -7.01146 -7.01146 v -7.01145 -7.01146 h -3.70417 -3.70416 v 17.85937 17.85938 h 3.70416 3.70417 z"
       transform="translate(-51.850288,-25.925144)"
       id="path4675" />
    <path
       style="fill:#000000;stroke-width:1"
       d="m 149.97407,140.743 c -1.78585,-0.63843 -3.1507,-1.74152 -4.15527,-3.35832 -0.7384,-1.18842 -0.79358,-1.45415 -0.79126,-3.8107 0.003,-2.8889 0.28575,-3.63461 2.01587,-5.31363 1.15711,-1.12294 2.97392,-1.91046 5.90697,-2.56046 1.02534,-0.22723 3.17394,-0.72583 4.77467,-1.108 l 2.91041,-0.69485 0.0721,-1.05834 c 0.11246,-1.65143 -0.64337,-2.64024 -2.32689,-3.04411 -1.60252,-0.38444 -3.7506,-0.19855 -4.67045,0.40415 -0.56166,0.36801 -1.51537,1.64813 -1.75365,2.35382 -0.072,0.21323 -3.56807,-0.11161 -5.78925,-0.5379 l -0.70982,-0.13624 0.38764,-1.09869 c 0.99529,-2.82096 2.80833,-4.77729 5.37664,-5.80157 1.31679,-0.52515 1.94765,-0.58873 5.84183,-0.58873 3.89418,0 4.52504,0.0636 5.84183,0.58873 1.91134,0.76227 3.49683,2.13515 4.10555,3.55502 0.42452,0.99019 0.50453,2.21436 0.64461,9.86177 0.15628,8.53145 0.17542,8.77212 0.83655,10.51719 l 0.67662,1.78594 h -3.51459 -3.51459 l -0.33118,-1.2922 -0.33118,-1.2922 -1.24476,0.89427 c -2.17239,1.56071 -3.56361,2.02956 -6.34386,2.13792 -1.98035,0.0772 -2.81073,-0.008 -3.91452,-0.40287 z"
       id="path4673"
       transform="translate(-51.850288,-25.925144)" />
    <path
       style="fill:none;stroke-width:1"
       d="m 158.05662,135.70169 c 1.29744,-0.66533 2.13357,-1.58521 2.45287,-2.69856 0.31792,-1.10853 0.34234,-4.47589 0.0324,-4.47589 -0.69399,0 -6.87878,1.67912 -7.37545,2.00237 -1.46349,0.9525 -1.7151,3.00325 -0.55016,4.48423 1.18434,1.50564 3.31918,1.77556 5.44029,0.68785 z"
       transform="translate(-51.850288,-25.925144)"
       id="path4671" />
    <path
       style="fill:#000000;stroke-width:1"
       d="m 111.02609,122.81966 v -17.87842 l 10.3849,0.0928 c 10.15292,0.0907 10.42035,0.10667 11.97239,0.71279 2.16754,0.8465 4.61694,3.30496 5.31114,5.3308 1.33957,3.90914 -0.0952,8.0447 -3.58351,10.32876 l -0.64112,0.41979 1.48223,0.67859 c 1.74524,0.799 3.37432,2.38621 4.22801,4.11936 0.51551,1.04659 0.61158,1.65727 0.61158,3.88747 0,2.3169 -0.0882,2.83392 -0.70909,4.15874 -1.50342,3.20763 -4.26479,5.24449 -7.80358,5.75612 -0.99334,0.14361 -6.18162,0.26347 -11.52951,0.26636 l -9.72344,0.005 z"
       transform="translate(-51.850288,-25.925144)"
       id="path4669" />
    <path
       style="fill:#000000;stroke-width:1"
       d="m 131.00213,133.92526 c 1.56148,-0.81037 2.24896,-1.97521 2.24896,-3.81052 0,-1.93105 -0.71817,-3.07268 -2.48357,-3.94792 -1.21182,-0.60079 -1.63547,-0.64824 -6.81263,-0.76298 l -5.52047,-0.12235 v 4.69471 4.69471 l 5.75469,-0.0982 c 5.19557,-0.0887 5.85751,-0.15157 6.81302,-0.64745 z"
       transform="translate(-51.850288,-25.925144)"
       id="path4667" />
    <path
       style="fill:#000000;stroke-width:1"
       d="m 129.98782,118.49973 c 1.51886,-0.86582 2.04556,-1.9294 1.8892,-3.81491 -0.13392,-1.61488 -0.57823,-2.31456 -1.9326,-3.0434 -0.63546,-0.34197 -1.86617,-0.44785 -6.15218,-0.52925 l -5.35782,-0.10176 v 4.15582 4.15581 l 5.22552,-0.0969 c 4.92094,-0.0913 5.28978,-0.13359 6.32788,-0.72536 z"
       transform="translate(-51.850288,-25.925144)"
       id="path4631" />
  </g>
</svg>
