<?xml version="1.0" encoding="UTF-8" standalone="no"?>
<!-- Created with Inkscape (http://www.inkscape.org/) -->

<svg
   xmlns:dc="http://purl.org/dc/elements/1.1/"
   xmlns:cc="http://creativecommons.org/ns#"
   xmlns:rdf="http://www.w3.org/1999/02/22-rdf-syntax-ns#"
   xmlns:svg="http://www.w3.org/2000/svg"
   xmlns="http://www.w3.org/2000/svg"
   xmlns:sodipodi="http://sodipodi.sourceforge.net/DTD/sodipodi-0.dtd"
   xmlns:inkscape="http://www.inkscape.org/namespaces/inkscape"
   width="410mm"
   height="297mm"
   viewBox="0 0 410 297"
   version="1.1"
   id="svg8"
   inkscape:export-filename="C:\Users\Owner\bootcamp\Homework\API_Project\assets\boozehub.png"
   inkscape:export-xdpi="96"
   inkscape:export-ydpi="96"
   inkscape:version="0.92.3 (2405546, 2018-03-11)"
   sodipodi:docname="drawing.svg">
  <defs
     id="defs2">
    <clipPath
       clipPathUnits="userSpaceOnUse"
       id="clipPath830">
      <rect
         style="opacity:1;fill:none;fill-opacity:1;stroke:#ff0707;stroke-width:0.26499999;stroke-miterlimit:4;stroke-dasharray:none;stroke-dashoffset:0;stroke-opacity:1;paint-order:normal"
         id="rect832"
         width="274.41071"
         height="98.273804"
         x="79.375"
         y="81.553566"
         rx="0.77803105"
         ry="0.29529354" />
    </clipPath>
  </defs>
  <sodipodi:namedview
     id="base"
     pagecolor="#ffffff"
     bordercolor="#666666"
     borderopacity="1.0"
     inkscape:pageopacity="0.0"
     inkscape:pageshadow="2"
     inkscape:zoom="0.7"
     inkscape:cx="706.24371"
     inkscape:cy="539.54004"
     inkscape:document-units="mm"
     inkscape:current-layer="layer1"
     showgrid="false"
     inkscape:window-width="1920"
     inkscape:window-height="1001"
     inkscape:window-x="-9"
     inkscape:window-y="-9"
     inkscape:window-maximized="1" />
  <metadata
     id="metadata5">
    <rdf:RDF>
      <cc:Work
         rdf:about="">
        <dc:format>image/svg+xml</dc:format>
        <dc:type
           rdf:resource="http://purl.org/dc/dcmitype/StillImage" />
        <dc:title></dc:title>
      </cc:Work>
    </rdf:RDF>
  </metadata>
  <g
     inkscape:label="Layer 1"
     inkscape:groupmode="layer"
     id="layer1">
    <path
       style="fill:#ff6600;stroke-width:1"
       d="m 221.56964,157.3186 c -1.21961,-0.63431 -1.93175,-1.41188 -2.38154,-2.60035 -0.363,-0.95914 -0.40204,-4.22438 -0.33739,-28.22387 l 0.0731,-27.139249 0.65691,-0.958628 c 0.36131,-0.527243 1.13521,-1.232863 1.71979,-1.568037 l 1.06288,-0.609412 h 41.55892 41.5589 l 1.12594,0.745104 c 0.70839,0.46881 1.31228,1.155586 1.62848,1.852083 0.4831,1.064056 0.50282,2.155329 0.5084,28.143399 0.004,18.47277 -0.0833,27.27234 -0.27559,27.78125 -0.38296,1.01359 -1.52474,2.18895 -2.55437,2.6295 -0.71088,0.30417 -7.67567,0.36402 -42.20103,0.36266 -36.94753,-0.002 -41.43415,-0.0456 -42.1434,-0.41445 z"
       id="path862"
       inkscape:export-xdpi="96"
       inkscape:export-ydpi="96" />
    <path
       style="fill:#ffffff;stroke-width:1"
       d="m 296.43984,141.31036 c 2.7309,-1.02176 4.9384,-3.87997 5.6651,-7.33506 0.62844,-2.98782 0.18609,-7.75072 -0.91815,-9.88608 -0.23061,-0.44599 -0.91046,-1.34371 -1.51075,-1.99494 -2.96561,-3.2173 -8.12077,-3.66355 -11.26188,-0.97488 l -1.09556,0.93776 v -5.17999 -5.17999 h -3.04271 -3.04271 v 14.81667 14.81666 h 2.77813 2.77812 v -1.3537 -1.35371 l 1.04254,0.94187 c 2.51881,2.27561 5.54871,2.88997 8.60787,1.74539 z"
       id="path858"
       inkscape:export-xdpi="96"
       inkscape:export-ydpi="96" />
    <path
       style="fill:#ff6600;stroke-width:1"
       d="m 290.57792,137.33504 c -1.11506,-0.32267 -2.60355,-2.10127 -2.96722,-3.54551 -0.38082,-1.51236 -0.37534,-5.62519 0.009,-6.77318 0.49159,-1.46829 1.45719,-2.5396 2.72563,-3.02401 2.05819,-0.78604 4.17009,0.0429 5.21777,2.0481 0.47902,0.91684 0.61401,1.68855 0.70268,4.01691 0.12207,3.20547 -0.14984,4.54922 -1.20267,5.94342 -1.07905,1.42895 -2.59731,1.8806 -4.48521,1.33427 z"
       id="path856"
       inkscape:export-xdpi="96"
       inkscape:export-ydpi="96" />
    <path
       style="fill:#ffffff;stroke-width:1"
       d="m 232.81443,134.84822 v -6.48229 h 5.68854 5.68855 v 6.48229 6.48229 h 3.175 3.175 v -14.81666 -14.81667 h -3.175 -3.175 v 5.82083 5.82084 h -5.68855 -5.68854 v -5.82084 -5.82083 h -3.04271 -3.0427 v 14.81667 14.81666 h 3.0427 3.04271 z"
       id="path854"
       inkscape:export-xdpi="96"
       inkscape:export-ydpi="96" />
    <path
       style="fill:#000000;stroke-width:1"
       d="m 133.92659,141.46743 c -5.08175,-1.42901 -7.72784,-5.16655 -7.7361,-10.92704 -0.008,-5.24704 2.79282,-9.25832 7.45116,-10.67324 2.71005,-0.82316 6.10841,-0.62627 8.45814,0.49003 3.08881,1.46742 5.06736,3.83724 5.90448,7.07215 1.42738,5.51585 -0.9542,11.00144 -5.81526,13.39453 -1.52156,0.74906 -2.04411,0.86363 -4.30272,0.94337 -1.7186,0.0607 -3.03122,-0.0387 -3.9597,-0.2998 z"
       id="path852"
       inkscape:export-xdpi="96"
       inkscape:export-ydpi="96" />
    <path
       style="fill:#ffffff;stroke-width:1"
       d="m 138.82609,137.21684 c 1.25412,-0.524 2.08408,-1.30481 2.79899,-2.6332 0.48437,-0.90003 0.56956,-1.49367 0.56956,-3.96875 0,-2.49494 -0.0833,-3.0662 -0.58371,-4.00162 -1.94995,-3.64527 -6.41592,-3.93208 -8.39925,-0.53942 -1.85659,3.17586 -1.11928,9.01037 1.34248,10.62338 1.47295,0.96511 2.81501,1.12835 4.27193,0.51961 z"
       id="path850"
       inkscape:export-xdpi="96"
       inkscape:export-ydpi="96" />
    <path
       style="fill:#000000;stroke-width:1"
       d="m 159.06201,141.46743 c -5.08175,-1.42901 -7.72785,-5.16655 -7.7361,-10.92704 -0.008,-5.24704 2.79281,-9.25832 7.45115,-10.67324 2.71006,-0.82316 6.10842,-0.62627 8.45815,0.49003 3.08881,1.46742 5.06736,3.83724 5.90448,7.07215 1.42738,5.51585 -0.9542,11.00144 -5.81526,13.39453 -1.52157,0.74906 -2.04411,0.86363 -4.30272,0.94337 -1.7186,0.0607 -3.03123,-0.0387 -3.9597,-0.2998 z"
       id="path848"
       inkscape:export-xdpi="96"
       inkscape:export-ydpi="96" />
    <path
       style="fill:#ffffff;stroke-width:1"
       d="m 163.96151,137.21684 c 1.25412,-0.524 2.08408,-1.30481 2.79899,-2.6332 0.48436,-0.90003 0.56956,-1.49367 0.56956,-3.96875 0,-2.49494 -0.0833,-3.0662 -0.58371,-4.00162 -1.94995,-3.64527 -6.41592,-3.93208 -8.39925,-0.53942 -1.85659,3.17586 -1.11928,9.01037 1.34248,10.62338 1.47295,0.96511 2.81501,1.12835 4.27193,0.51961 z"
       id="path846"
       inkscape:export-xdpi="96"
       inkscape:export-ydpi="96" />
    <path
       style="fill:#000000;stroke-width:1"
       d="m 204.08342,141.57359 c -2.84474,-0.67682 -5.42505,-3.16053 -6.40784,-6.16794 -2.02843,-6.20722 0.11345,-12.80062 4.92606,-15.16395 1.37446,-0.67496 1.75882,-0.7388 4.41592,-0.73337 2.63543,0.005 3.05266,0.0752 4.41593,0.73933 1.91126,0.93103 3.96708,3.14479 4.6733,5.03234 0.51306,1.37129 1.09723,4.71479 1.09723,6.28007 v 0.77461 h -7.14375 c -5.5394,0 -7.14342,0.0743 -7.14228,0.33073 0.004,0.81036 0.6334,2.51863 1.21058,3.28367 0.81877,1.08526 2.65925,1.80407 3.98323,1.55569 1.06348,-0.19951 2.74222,-1.64763 2.74222,-2.36551 0,-0.23283 0.20836,-0.42076 0.46302,-0.41762 0.89854,0.0111 5.09794,0.70456 5.26239,0.86901 0.27167,0.27167 -0.45574,1.75142 -1.52746,3.10725 -0.70279,0.88909 -1.53005,1.52618 -2.78219,2.14261 -1.61933,0.79719 -2.02493,0.88244 -4.44315,0.9339 -1.46364,0.0311 -3.14808,-0.0592 -3.74321,-0.20082 z"
       id="path844"
       inkscape:export-xdpi="96"
       inkscape:export-ydpi="96" />
    <path
       style="fill:#ffffff;stroke-width:1"
       d="m 211.253,128.0352 c -0.36511,-1.82294 -0.7275,-2.58101 -1.6001,-3.34716 -2.62401,-2.30391 -6.4718,-0.34295 -6.4718,3.29824 v 0.90881 h 4.12207 4.12206 z"
       id="path842"
       inkscape:export-xdpi="96"
       inkscape:export-ydpi="96" />
    <path
       style="fill:#000000;stroke-width:1"
       d="m 97.612351,126.5132 v -14.85402 l 8.797399,0.0851 c 8.28798,0.0802 8.86711,0.11741 10.00146,0.64227 2.95281,1.36627 4.58362,3.80386 4.58362,6.85121 0,1.47711 -0.13897,2.11993 -0.68636,3.175 -0.68081,1.31223 -1.71923,2.45695 -2.70192,2.97852 -0.45661,0.24236 -0.37213,0.34218 0.79375,0.93784 4.75526,2.42948 5.53584,8.55582 1.59255,12.49911 -2.28202,2.28202 -2.52023,2.32611 -13.18623,2.44041 l -9.194269,0.0985 z"
       id="path840"
       inkscape:export-xdpi="96"
       inkscape:export-ydpi="96" />
    <path
       style="fill:#ffffff;stroke-width:1"
       d="m 113.17388,136.02461 c 1.84662,-0.39603 2.75144,-1.40603 2.88563,-3.22106 0.12775,-1.72793 -0.47254,-2.81118 -1.94561,-3.51091 -0.83473,-0.3965 -1.88931,-0.50893 -5.71978,-0.60977 l -4.69635,-0.12363 v 3.87209 3.8721 h 4.08802 c 2.24841,0 4.67305,-0.12547 5.38809,-0.27882 z"
       id="path838"
       inkscape:export-xdpi="96"
       inkscape:export-ydpi="96" />
    <path
       style="fill:#ffffff;stroke-width:1"
       d="m 113.41673,122.99584 c 1.76891,-0.95061 2.20372,-3.72958 0.80274,-5.13056 -0.91407,-0.91406 -2.15908,-1.12749 -6.6191,-1.13471 l -3.9026,-0.006 v 3.46626 3.46626 l 4.43177,-0.10062 c 3.56633,-0.081 4.59882,-0.19039 5.28719,-0.56032 z"
       id="path836"
       inkscape:export-xdpi="96"
       inkscape:export-ydpi="96" />
    <path
       style="fill:#000000;stroke-width:1"
       d="m 175.66443,139.06534 v -2.26518 l 5.42707,-6.0692 5.42707,-6.0692 h -5.03019 -5.0302 v -2.38125 -2.38125 h 8.99584 8.99583 v 2.07036 2.07036 l -3.86586,4.34579 c -2.12621,2.39018 -4.6531,5.14946 -5.6153,6.13172 l -1.74944,1.78594 h 5.87988 5.87989 v 2.51354 2.51354 h -9.65729 -9.6573 z"
       id="path826"
       inkscape:export-xdpi="96"
       inkscape:export-ydpi="96" />
    <path
       style="fill:#ffffff;stroke-width:1"
       d="m 258.67909,141.09496 c -0.7212,-0.42298 -0.64064,0.1651 -1.39377,-10.17472 l -0.68399,-9.39045 0.25755,-0.25481 c 0.31301,-0.30967 0.45091,-0.31793 0.74444,-0.0445 0.25174,0.23447 0.17472,-0.41964 1.27364,10.81752 0.56149,5.74154 0.57786,5.82801 1.1689,6.17201 0.35077,0.20415 12.37211,0.20415 12.72288,0 0.59104,-0.344 0.60741,-0.43047 1.1689,-6.17201 1.09891,-11.23716 1.0219,-10.58305 1.27364,-10.81752 0.29355,-0.27341 0.43143,-0.26513 0.74459,0.0447 l 0.2577,0.25498 -0.68498,9.39158 c -0.75396,10.33741 -0.67371,9.75136 -1.39308,10.17328 -0.31086,0.18232 -0.88355,0.19691 -7.72821,0.19691 -6.84466,0 -7.41735,-0.0146 -7.72821,-0.19691 z m 2.38412,-4.40736 c -0.16585,-0.11632 -0.35458,-0.35876 -0.4194,-0.53876 -0.11425,-0.31726 -1.29396,-11.75795 -1.22235,-11.85418 0.0959,-0.12882 2.14069,-0.58605 2.87347,-0.64252 0.75419,-0.0581 1.04498,-0.0103 3.0997,0.50929 3.42828,0.86699 4.10415,0.97182 5.20344,0.8071 0.50087,-0.075 1.33786,-0.25525 1.85998,-0.40044 0.52211,-0.14518 0.95377,-0.25533 0.95923,-0.24476 0.0512,0.099 -1.16109,11.5868 -1.24834,11.82974 -0.0638,0.17766 -0.2517,0.41821 -0.41755,0.53453 -0.28471,0.19971 -0.58306,0.21151 -5.34409,0.21151 -4.76103,0 -5.05938,-0.0119 -5.34409,-0.21151 z m 4.8955,-1.2799 c 0.17082,-0.17473 0.4765,-0.94768 0.9846,-2.48962 0.40527,-1.22993 0.73687,-2.32984 0.73687,-2.44424 0,-0.31158 -0.18595,-0.72045 -0.39639,-0.87161 -0.40143,-0.28836 -3.86101,-1.71209 -4.16027,-1.71209 -0.17453,0 -0.41181,0.0887 -0.52728,0.1971 -0.27025,0.25369 -1.67208,4.43755 -1.67209,4.99046 -2e-5,0.70959 0.0194,0.72234 3.23114,2.12418 1.19388,0.5211 1.46496,0.55204 1.80342,0.20582 z m 3.92898,-2.67909 c 1.8779,-0.49201 2.04165,-0.55938 2.20307,-0.9063 0.17533,-0.37681 0.13952,-0.7364 -0.2906,-2.91856 -0.49706,-2.52175 -0.5431,-2.66622 -0.92129,-2.89117 -0.28438,-0.16916 -0.39863,-0.1517 -2.39777,0.3666 -2.01348,0.52199 -2.56627,0.7587 -2.56149,1.0968 0.001,0.0729 0.44088,0.32568 0.97744,0.56166 1.86824,0.82165 2.24882,1.82583 1.51748,4.004 -0.34567,1.02948 -0.37544,1.14177 -0.30272,1.14177 0.022,0 0.82113,-0.20466 1.77588,-0.4548 z"
       id="path890"
       inkscape:connector-curvature="0"
       inkscape:export-xdpi="96"
       inkscape:export-ydpi="96" />
  </g>
</svg>
