<?xml version="1.0" encoding="UTF-8" standalone="no"?>
<!-- Created with Inkscape (http://www.inkscape.org/) -->

<svg
   xmlns:dc="http://purl.org/dc/elements/1.1/"
   xmlns:cc="http://creativecommons.org/ns#"
   xmlns:rdf="http://www.w3.org/1999/02/22-rdf-syntax-ns#"
   xmlns:svg="http://www.w3.org/2000/svg"
   xmlns="http://www.w3.org/2000/svg"
   xmlns:sodipodi="http://sodipodi.sourceforge.net/DTD/sodipodi-0.dtd"
   xmlns:inkscape="http://www.inkscape.org/namespaces/inkscape"
   width="410mm"
   height="297mm"
   viewBox="0 0 410 297"
   version="1.1"
   id="svg8"
   inkscape:export-filename="C:\Users\Owner\bootcamp\Homework\API_Project\assets\colorized.png"
   inkscape:export-xdpi="96"
   inkscape:export-ydpi="96"
   inkscape:version="0.92.3 (2405546, 2018-03-11)"
   sodipodi:docname="drawing-2.svg">
  <defs
     id="defs2">
    <clipPath
       clipPathUnits="userSpaceOnUse"
       id="clipPath877">
      <rect
         style="opacity:1;fill:none;fill-opacity:1;stroke:#ff0707;stroke-width:0.26499999;stroke-miterlimit:4;stroke-dasharray:none;stroke-dashoffset:0;stroke-opacity:1;paint-order:normal"
         id="rect879"
         width="214.69048"
         height="103.56547"
         x="120.19643"
         y="116.32737"
         rx="0.77803105"
         ry="0.29529354" />
    </clipPath>
  </defs>
  <sodipodi:namedview
     id="base"
     pagecolor="#ffffff"
     bordercolor="#666666"
     borderopacity="1.0"
     inkscape:pageopacity="0.0"
     inkscape:pageshadow="2"
     inkscape:zoom="0.98994949"
     inkscape:cx="811.05531"
     inkscape:cy="384.37812"
     inkscape:document-units="mm"
     inkscape:current-layer="layer1"
     showgrid="false"
     inkscape:window-width="1920"
     inkscape:window-height="1001"
     inkscape:window-x="-9"
     inkscape:window-y="-9"
     inkscape:window-maximized="1" />
  <metadata
     id="metadata5">
    <rdf:RDF>
      <cc:Work
         rdf:about="">
        <dc:format>image/svg+xml</dc:format>
        <dc:type
           rdf:resource="http://purl.org/dc/dcmitype/StillImage" />
        <dc:title></dc:title>
      </cc:Work>
    </rdf:RDF>
  </metadata>
  <g
     inkscape:label="Layer 1"
     inkscape:groupmode="layer"
     id="layer1">
    <g
       id="g941">
      <path
         id="path926"
         d="m 215.60247,193.87544 c -1.24775,-0.6578 -1.93765,-1.40406 -2.38218,-2.57679 -0.36386,-0.9599 -0.40265,-4.20293 -0.33739,-28.20441 l 0.0737,-27.11979 0.66146,-0.97989 c 0.3638,-0.53895 1.13771,-1.25333 1.71979,-1.5875 l 1.05833,-0.60761 40.96994,-0.0694 c 27.12571,-0.046 41.30722,0.0214 41.96807,0.19934 1.32186,0.35594 2.28921,1.14857 2.92667,2.3981 0.50927,0.99827 0.52178,1.67279 0.52178,28.13589 0,18.51331 -0.0893,27.34936 -0.28141,27.85794 -0.38296,1.01359 -1.52474,2.18895 -2.55437,2.6295 -0.71117,0.3043 -7.66089,0.36254 -42.20103,0.35369 -37.17878,-0.01 -41.42971,-0.0528 -42.1434,-0.42904 z"
         style="fill:#ff6600;stroke-width:1" />
      <path
         id="path924"
         d="m 261.34777,177.63984 c 0.71241,-0.33945 1.75421,-1.05373 2.3151,-1.58729 l 1.01981,-0.97012 v 1.41424 1.41424 h 2.77813 2.77812 v -10.71562 -10.71563 h -3.02738 -3.02738 l -0.0815,7.34219 c -0.079,7.11851 -0.0999,7.37184 -0.68677,8.3156 -0.66252,1.06546 -2.41156,2.06929 -3.60545,2.06929 -1.17627,0 -2.45678,-0.75359 -2.91256,-1.71407 -0.34981,-0.73717 -0.41732,-2.10354 -0.41732,-8.44622 v -7.56679 h -3.04271 -3.04271 v 7.35974 c 0,4.10984 0.12585,8.053 0.285,8.92969 0.50783,2.79751 1.78539,4.32655 4.44635,5.32159 1.44378,0.53988 4.62592,0.30928 6.22124,-0.45084 z"
         style="fill:#ffffff;stroke-width:1" />
      <path
         id="path922"
         d="m 291.06751,177.68854 c 3.11869,-1.60419 4.82177,-4.3553 5.36925,-8.67329 0.58443,-4.6097 -0.88047,-9.22857 -3.57595,-11.27496 -3.23811,-2.45833 -7.61437,-2.38558 -10.64948,0.17704 l -0.8599,0.72604 v -5.1829 -5.18289 h -2.91042 -2.91041 v 14.81666 14.81667 h 2.64583 2.64583 v -1.37242 -1.37241 l 0.72761,0.66839 c 1.08739,0.99889 2.30484,1.78582 3.42819,2.21588 1.46603,0.56124 4.66439,0.37121 6.08945,-0.36181 z"
         style="fill:#ffffff;stroke-width:1" />
      <path
         id="path920"
         d="m 284.36796,173.71659 c -2.00677,-0.93726 -3.01653,-3.16251 -3.01653,-6.64762 0,-2.55118 0.54502,-4.41361 1.61051,-5.50342 2.22023,-2.27091 5.75459,-1.47786 6.97184,1.56434 0.5996,1.49855 0.8139,4.79126 0.43143,6.62876 -0.73116,3.51268 -3.30859,5.21368 -5.99725,3.95794 z"
         style="fill:#ff6600;stroke-width:1" />
      <path
         id="path918"
         d="m 226.84726,171.42862 v -6.48229 h 5.82084 5.82083 v 6.48229 6.48229 h 3.04271 3.04271 v -14.81667 -14.81666 h -3.04271 -3.04271 v 5.82083 5.82083 h -5.82083 -5.82084 v -5.82083 -5.82083 h -3.0427 -3.04271 v 14.81666 14.81667 h 3.04271 3.0427 z"
         style="fill:#ffffff;stroke-width:1" />
      <path
         inkscape:connector-curvature="0"
         id="path916"
         d="m 178.95604,178.19287 c -4.67387,-1.42173 -6.29388,-6.86045 -3.11814,-10.46827 1.22329,-1.38974 2.47629,-1.90458 7.08415,-2.9108 4.50636,-0.98405 4.50237,-0.98216 4.50237,-2.12191 0,-1.79194 -2.10616,-2.86674 -4.67372,-2.38507 -1.00046,0.18769 -2.47003,1.4692 -2.47003,2.15395 0,0.20289 -0.20836,0.36651 -0.46303,0.3636 -0.72644,-0.008 -4.83223,-0.70386 -4.97041,-0.84203 -0.2627,-0.2627 1.53726,-3.4002 2.33993,-4.07872 1.83727,-1.55307 2.87582,-1.82083 7.06226,-1.82083 4.16484,0 5.10111,0.19761 6.81353,1.43808 1.93383,1.40086 2.02344,1.82502 2.18348,10.33587 0.13184,7.01093 0.1822,7.62891 0.71689,8.7974 l 0.57509,1.25677 h -2.90209 -2.90209 l -0.26588,-0.7276 c -0.14624,-0.40019 -0.31889,-0.87839 -0.38369,-1.06267 -0.0806,-0.22935 -0.51641,-0.0506 -1.38121,0.56671 -0.69487,0.49597 -1.83312,1.09323 -2.52943,1.32725 -1.30666,0.43914 -4.05203,0.53293 -5.21798,0.17827 z"
         style="fill:#000000;stroke-width:1" />
      <path
         inkscape:connector-curvature="0"
         id="path912"
         d="m 145.88483,163.0936 v -14.85402 l 8.7974,0.0851 c 8.28798,0.0802 8.86711,0.11741 10.00146,0.64227 2.95281,1.36627 4.58362,3.80386 4.58362,6.85121 0,1.47711 -0.13897,2.11993 -0.68636,3.175 -0.68081,1.31222 -1.71923,2.45695 -2.70192,2.97852 -0.45661,0.24236 -0.37213,0.34218 0.79375,0.93783 4.75527,2.42949 5.53584,8.55583 1.59255,12.49912 -2.28202,2.28202 -2.52022,2.32611 -13.18623,2.44041 l -9.19427,0.0985 z"
         style="fill:#000000;stroke-width:1" />
      <path
         inkscape:connector-curvature="0"
         id="path873"
         d="m 198.53691,167.19529 v -10.71563 h 2.63201 2.63201 l 0.08,1.34657 0.08,1.34657 0.79375,-1.06657 c 0.43657,-0.58661 1.22668,-1.31163 1.75582,-1.61115 1.24467,-0.70456 3.40055,-0.71448 4.92463,-0.0227 l 1.12421,0.5103 -0.83271,2.32816 c -0.458,1.28049 -0.8633,2.36649 -0.90068,2.41332 -0.0374,0.0468 -0.64286,-0.11002 -1.3455,-0.34857 -1.63726,-0.55587 -2.78285,-0.34272 -3.64132,0.67751 -1.09953,1.30672 -1.26526,2.40154 -1.40916,9.30935 l -0.13642,6.54843 h -2.87829 -2.87829 v -10.71562 z"
         style="fill:#000000;stroke-width:1" />
      <path
         inkscape:connector-curvature="0"
         id="path914"
         d="m 184.91087,173.70667 c 1.86497,-0.86074 2.35859,-1.63596 2.47202,-3.88229 0.0774,-1.53189 0.0197,-1.96694 -0.26029,-1.96451 -0.1978,0.002 -1.55027,0.29706 -3.00548,0.65631 -2.16134,0.53357 -2.77906,0.80023 -3.37343,1.45625 -0.82572,0.91137 -0.87581,1.25079 -0.36497,2.47339 0.39083,0.93539 1.6986,1.74873 2.81236,1.74909 0.3638,1.2e-4 1.13771,-0.21959 1.71979,-0.48824 z"
         style="fill:#ffffff;stroke-width:1" />
      <path
         inkscape:connector-curvature="0"
         id="path910"
         d="m 161.44636,172.60501 c 1.84662,-0.39603 2.75145,-1.40603 2.88563,-3.22106 0.12775,-1.72793 -0.47254,-2.81118 -1.94561,-3.51091 -0.83473,-0.3965 -1.88931,-0.50893 -5.71978,-0.60977 l -4.69635,-0.12364 v 3.8721 3.8721 h 4.08802 c 2.24841,0 4.67305,-0.12547 5.38809,-0.27882 z"
         style="fill:#ffffff;stroke-width:1" />
      <path
         inkscape:connector-curvature="0"
         id="path908"
         d="m 161.68921,159.57624 c 1.76891,-0.95062 2.20372,-3.72958 0.80274,-5.13056 -0.91406,-0.91406 -2.15907,-1.12749 -6.6191,-1.13471 l -3.9026,-0.006 v 3.46626 3.46626 l 4.43177,-0.10062 c 3.56633,-0.081 4.59882,-0.19039 5.28719,-0.56032 z"
         style="fill:#ffffff;stroke-width:1" />
    </g>
  </g>
</svg>
